<svg width="360" height="500" viewBox="0 0 360 500" fill="none" xmlns="http://www.w3.org/2000/svg">
<path d="M65.371 300.312C8.39749 318.806 -87 428.533 -87 428.533V521H388V5.03412C388 5.03412 370.113 -13.4593 341.626 20.4453C313.139 54.3499 319.764 213.393 258.153 272.572C196.543 331.751 122.344 281.819 65.371 300.312Z" fill="#F3F3FC"/>
<path d="M77.371 352.312C20.3975 370.806 -75 480.533 -75 480.533V573H400V57.0341C400 57.0341 382.113 38.5407 353.626 72.4453C325.139 106.35 331.764 265.393 270.153 324.572C208.543 383.751 134.344 333.819 77.371 352.312Z" fill="#4750D5"/>
<path d="M113.371 395.312C56.3975 413.806 -39 523.533 -39 523.533V616H436V100.034C436 100.034 418.113 81.5407 389.626 115.445C361.139 149.35 367.764 308.393 306.153 367.572C244.543 426.751 170.344 376.819 113.371 395.312Z" fill="#2C35BF"/>
</svg>
